<?xml version="1.0" standalone="no"?>
<!DOCTYPE svg PUBLIC "-//W3C//DTD SVG 20010904//EN"
 "http://www.w3.org/TR/2001/REC-SVG-20010904/DTD/svg10.dtd">
<svg version="1.0" xmlns="http://www.w3.org/2000/svg"
 width="1349.000000pt" height="1349.000000pt" viewBox="0 0 1349.000000 1349.000000"
 preserveAspectRatio="xMidYMid meet">
<metadata>
Created by potrace 1.14, written by Peter Selinger 2001-2017
</metadata>
<g transform="translate(0.000000,1349.000000) scale(0.100000,-0.100000)"
fill="#000000" stroke="none">
<path d="M6438 13485 c-2 -1 -60 -6 -130 -9 -69 -4 -137 -9 -150 -11 -13 -2
-54 -6 -93 -9 -38 -3 -79 -8 -90 -10 -11 -2 -47 -7 -80 -10 -33 -4 -71 -9 -85
-11 -14 -2 -43 -7 -65 -9 -22 -3 -51 -8 -65 -11 -13 -2 -42 -7 -65 -11 -22 -3
-74 -12 -115 -20 -41 -8 -86 -17 -100 -20 -65 -12 -258 -56 -285 -64 -16 -5
-41 -12 -55 -14 -14 -3 -59 -15 -100 -26 -41 -12 -80 -22 -87 -24 -7 -1 -16
-5 -19 -9 -4 -4 -15 -7 -24 -7 -26 0 -408 -130 -560 -191 -74 -29 -138 -53
-142 -51 -5 1 -8 -2 -8 -7 0 -7 -15 -15 -55 -26 -15 -4 -117 -51 -242 -111
-61 -30 -116 -54 -122 -54 -6 0 -11 -4 -11 -8 0 -4 -25 -19 -55 -32 -30 -13
-55 -29 -55 -34 0 -5 -3 -7 -6 -4 -3 4 -39 -14 -80 -38 -41 -24 -77 -44 -82
-45 -4 -1 -16 -7 -27 -14 -11 -7 -78 -48 -150 -91 -71 -43 -134 -82 -140 -86
-5 -5 -39 -27 -75 -50 -36 -23 -67 -45 -68 -50 -2 -4 -8 -8 -13 -8 -7 0 -81
-49 -124 -83 -5 -4 -68 -51 -140 -104 -71 -53 -137 -105 -146 -115 -9 -10 -20
-18 -23 -18 -4 0 -13 -6 -20 -12 -12 -12 -69 -61 -130 -111 -93 -77 -250 -223
-395 -368 -93 -93 -138 -141 -288 -308 -18 -20 -39 -43 -46 -51 -25 -28 -141
-172 -204 -254 -35 -44 -68 -88 -75 -96 -66 -76 -368 -529 -368 -550 0 -6 -4
-10 -9 -10 -5 0 -13 -10 -17 -22 -3 -13 -16 -36 -27 -52 -12 -17 -28 -44 -37
-60 -9 -17 -40 -74 -69 -126 -46 -84 -219 -432 -241 -485 -4 -11 -26 -63 -48
-115 -80 -188 -194 -500 -217 -590 -2 -8 -13 -42 -23 -75 -20 -59 -60 -199
-67 -233 -2 -9 -11 -44 -20 -77 -26 -95 -73 -308 -80 -360 -3 -16 -9 -55 -15
-85 -18 -89 -25 -132 -36 -210 -2 -19 -7 -46 -9 -60 -3 -14 -7 -49 -11 -78 -3
-29 -7 -61 -9 -71 -2 -10 -7 -54 -11 -97 -3 -43 -8 -92 -10 -109 -26 -267 -26
-892 1 -1160 2 -22 7 -69 10 -105 6 -69 11 -109 20 -175 3 -22 8 -58 10 -80 3
-22 7 -51 10 -65 2 -14 7 -41 10 -60 21 -133 65 -360 90 -460 8 -30 16 -66 19
-80 7 -36 58 -223 76 -280 6 -19 13 -45 16 -57 20 -99 196 -578 280 -761 13
-29 24 -55 24 -57 0 -9 192 -400 199 -405 3 -3 18 -30 34 -60 29 -57 67 -126
127 -226 19 -33 41 -71 48 -87 8 -15 18 -27 23 -27 5 0 9 -5 9 -10 0 -18 245
-381 262 -388 5 -2 8 -8 8 -13 0 -5 27 -44 60 -87 33 -42 71 -90 83 -106 31
-40 121 -150 127 -156 3 -3 25 -30 50 -60 25 -30 54 -64 65 -76 11 -11 54 -58
95 -104 128 -141 348 -357 494 -485 131 -115 108 -95 216 -183 36 -29 79 -64
95 -77 17 -13 66 -51 110 -84 44 -33 86 -65 93 -71 6 -6 12 -8 12 -5 0 4 7 0
15 -7 33 -30 172 -128 181 -128 3 0 12 -6 19 -12 34 -31 43 -36 49 -31 3 4 6
1 6 -5 0 -7 6 -12 14 -12 8 0 16 -4 18 -8 3 -8 259 -164 373 -227 146 -81 453
-232 620 -303 162 -70 578 -223 645 -237 8 -2 16 -4 18 -5 1 -2 5 -3 10 -4 4
-1 34 -10 67 -20 33 -10 67 -20 75 -22 258 -67 346 -89 450 -110 168 -35 159
-33 205 -39 22 -3 47 -8 55 -10 21 -6 70 -14 121 -20 24 -3 55 -7 69 -10 60
-11 119 -18 260 -31 41 -3 83 -8 93 -10 134 -25 1077 -24 1167 1 8 3 53 7 99
10 46 3 87 7 90 9 3 2 40 7 81 11 41 4 84 9 95 11 11 2 52 9 90 14 39 6 115
19 170 30 55 10 114 21 130 24 17 3 41 8 55 11 14 3 34 8 45 10 11 3 31 7 45
10 14 4 35 8 46 11 12 2 75 18 140 35 66 17 124 32 129 33 6 1 37 10 70 20 33
10 65 19 70 20 26 6 161 49 170 54 6 4 12 7 15 7 11 2 60 18 180 61 132 48
138 50 212 83 26 12 55 21 63 21 8 0 15 4 15 8 0 5 6 9 13 9 6 0 35 11 62 23
28 13 52 24 55 25 23 8 88 37 100 45 8 6 22 13 30 16 63 24 376 186 503 260
37 21 80 46 95 54 116 64 586 381 622 420 3 3 34 27 70 55 277 213 617 526
831 767 35 39 79 87 96 106 18 19 43 48 55 64 13 16 29 36 36 44 7 7 38 44 68
81 30 38 60 75 67 83 7 8 26 33 42 55 17 22 35 45 40 51 6 6 17 22 25 34 8 12
20 28 25 34 6 6 26 34 45 61 18 28 36 52 39 55 3 3 39 55 78 115 40 61 76 115
81 120 7 9 63 99 113 183 140 236 306 558 401 782 11 25 26 59 33 75 37 84 62
154 57 159 -3 3 0 6 6 6 7 0 11 3 10 8 -2 4 6 27 16 52 11 25 20 50 22 55 1 6
18 55 37 110 31 87 56 165 112 345 13 43 60 223 70 269 3 11 7 29 9 39 19 74
58 253 62 277 4 30 7 48 18 95 3 14 8 41 11 60 2 19 7 46 9 60 3 14 7 45 10
70 3 25 8 55 10 67 3 12 7 49 11 82 3 33 8 69 10 80 2 11 6 51 10 88 3 37 8
86 10 108 26 244 26 1024 1 1163 -2 9 -7 53 -10 97 -4 44 -9 91 -11 105 -2 14
-6 45 -10 70 -8 62 -16 119 -21 155 -8 43 -12 75 -19 120 -3 22 -7 49 -10 60
-2 11 -9 45 -15 75 -6 30 -13 66 -16 80 -2 14 -7 36 -10 50 -3 14 -8 38 -11
54 -2 15 -23 99 -45 185 -22 86 -41 161 -42 166 -22 92 -160 515 -186 570 -5
11 -21 50 -34 88 -14 37 -32 82 -39 100 -8 17 -43 97 -78 177 -71 163 -256
532 -271 541 -5 3 -8 8 -7 10 3 5 -36 74 -98 174 -24 39 -50 84 -58 101 -7 17
-21 36 -29 44 -9 7 -16 19 -16 26 0 8 -4 14 -10 14 -5 0 -10 4 -10 10 0 11
-62 103 -72 108 -5 2 -8 10 -8 18 0 8 -4 14 -10 14 -5 0 -10 5 -10 10 0 12
-191 277 -227 316 -12 13 -20 24 -18 24 4 0 -13 23 -40 54 -6 6 -30 36 -55 66
-25 30 -47 57 -50 60 -3 3 -29 34 -59 70 -30 36 -62 72 -70 81 -9 9 -50 54
-91 99 -96 107 -272 282 -388 388 -98 90 -111 102 -186 165 -27 23 -55 48 -62
55 -7 6 -17 12 -23 12 -6 0 -11 4 -11 8 0 5 -33 34 -72 65 -40 31 -80 62 -88
70 -8 7 -31 24 -50 37 -19 13 -37 27 -40 30 -6 7 -160 117 -225 160 -27 19
-51 37 -53 42 -2 4 -8 8 -13 8 -8 0 -131 78 -156 100 -7 5 -15 10 -18 10 -3 0
-31 16 -61 35 -30 19 -59 35 -64 35 -6 0 -10 4 -10 9 0 5 -8 11 -17 15 -20 6
-121 62 -137 75 -10 8 -461 238 -471 241 -3 0 -26 10 -52 21 -100 43 -119 51
-148 64 -49 21 -256 102 -310 120 -27 9 -59 21 -70 26 -68 28 -512 162 -575
173 -8 2 -33 8 -55 13 -49 13 -173 42 -206 48 -13 3 -35 7 -49 10 -51 11 -205
38 -285 51 -16 2 -41 6 -55 9 -14 2 -45 7 -70 10 -25 3 -56 8 -70 10 -14 2
-54 7 -90 11 -36 3 -72 7 -80 9 -8 1 -60 6 -115 10 -55 4 -118 9 -140 12 -48
4 -742 12 -747 8z"/>
</g>
</svg>
